<svg xmlns="http://www.w3.org/2000/svg" xmlns:xlink="http://www.w3.org/1999/xlink" width="1224" height="120" viewBox="0 0 1224 120"><defs><clipPath id="a"><path d="M0-163H120V-283H0Z" transform="translate(0 283)" fill="none"/></clipPath><clipPath id="b"><path d="M60-283A60,60,0,0,0,0-223H0a60,60,0,0,0,60,60h0a60,60,0,0,0,60-60h0A60,60,0,0,0,60-283Z" transform="translate(0 283)" fill="none"/></clipPath></defs><g transform="translate(-320 -9845)"><g transform="translate(-12 20)"><g transform="translate(452 9881.39)"><path d="M-779.978,0h0c-4.46,0-6.762,2.123-8.792,4-1.947,1.8-3.63,3.348-7.132,3.348S-801.085,5.793-803.034,4c-2.029-1.874-4.331-4-8.791-4s-6.758,2.123-8.787,4c-1.945,1.8-3.626,3.347-7.125,3.347S-832.919,5.794-834.866,4c-2.03-1.874-4.331-4-8.788-4s-6.757,2.123-8.788,4c-1.945,1.8-3.626,3.347-7.123,3.347S-864.744,5.794-866.689,4C-868.707,2.134-871,.026-875.409,0c-.006,0-.013,0-.019,0h0l-.027,0-.019,0c-.006,0-.01,0-.016,0C-879.907.024-882.2,2.132-884.219,4c-1.948,1.8-3.63,3.348-7.132,3.348S-896.536,5.793-898.483,4c-2.031-1.874-4.332-4-8.792-4s-6.758,2.123-8.788,4c-1.946,1.8-3.627,3.347-7.125,3.347S-928.37,5.794-930.317,4c-2.03-1.874-4.332-4-8.788-4s-6.758,2.123-8.787,4c-1.945,1.8-3.626,3.347-7.125,3.347S-960.194,5.794-962.14,4C-964.157,2.134-966.45.026-970.859,0c-.007,0-.012,0-.02,0l-.026,0-.019,0c-.005,0-.011,0-.016,0-4.417.021-6.71,2.129-8.731,3.993-1.947,1.8-3.629,3.348-7.132,3.348S-991.987,5.793-993.935,4c-2.029-1.874-4.33-4-8.79-4s-6.759,2.123-8.788,4c-1.946,1.8-3.627,3.347-7.126,3.347s-5.182-1.551-7.129-3.348c-2.028-1.874-4.331-4-8.788-4s-6.757,2.123-8.787,4c-1.946,1.8-3.627,3.347-7.125,3.347s-5.177-1.552-7.122-3.348c-2.029-1.874-4.329-4-8.785-4-.038,0-.061.038-.1.041s-.06-.041-.1-.041c-4.459,0-6.762,2.123-8.791,4-1.948,1.8-3.629,3.348-7.131,3.348s-5.184-1.552-7.132-3.348c-2.03-1.874-4.332-4-8.791-4s-6.759,2.123-8.788,4c-1.946,1.8-3.626,3.347-7.125,3.347s-5.182-1.551-7.13-3.348c-2.029-1.874-4.331-4-8.787-4s-6.758,2.123-8.788,4c-1.945,1.8-3.627,3.347-7.125,3.347s-5.177-1.552-7.122-3.348C-1155.3,2.134-1157.593.026-1162,0c-.007,0-.012,0-.02,0l-.026,0-.019,0c-.005,0-.011,0-.016,0-4.417.021-6.71,2.129-8.73,3.993-1.947,1.8-3.63,3.348-7.132,3.348s-5.184-1.552-7.132-3.348c-2.03-1.874-4.332-4-8.79-4s-6.759,2.123-8.788,4c-1.945,1.8-3.626,3.347-7.125,3.347s-5.182-1.551-7.13-3.348c-2.029-1.874-4.33-4-8.787-4s-6.758,2.123-8.788,4c-1.945,1.8-3.626,3.347-7.124,3.347s-5.177-1.552-7.123-3.348c-2.018-1.864-4.31-3.971-8.72-3.993-.007,0-.012,0-.02,0h0l-.026,0-.018,0c-.006,0-.01,0-.016,0-4.417.021-6.711,2.129-8.73,3.993-1.947,1.8-3.63,3.348-7.132,3.348s-5.185-1.552-7.132-3.348c-2.03-1.874-4.332-4-8.792-4s-6.758,2.123-8.788,4c-1.945,1.8-3.626,3.347-7.125,3.347s-5.183-1.551-7.13-3.348c-2.028-1.874-4.331-4-8.787-4s-6.759,2.123-8.788,4c-1.946,1.8-3.626,3.347-7.124,3.347s-5.177-1.552-7.123-3.348c-2.029-1.874-4.33-4-8.785-4a1.225,1.225,0,0,0-1.225,1.225,1.225,1.225,0,0,0,1.225,1.224c3.5,0,5.177,1.552,7.122,3.347,2.03,1.874,4.33,4,8.785,4s6.755-2.124,8.786-4c1.944-1.8,3.625-3.349,7.126-3.349s5.18,1.552,7.127,3.348c2.031,1.875,4.332,4,8.791,4s6.756-2.124,8.786-4c1.945-1.8,3.627-3.349,7.126-3.349s5.184,1.552,7.132,3.349c2.031,1.874,4.333,4,8.792,4s6.762-2.124,8.792-4c1.942-1.791,3.622-3.337,7.1-3.346S-1252.338,4-1250.4,5.8c2.029,1.874,4.328,4,8.784,4s6.756-2.124,8.786-4c1.945-1.8,3.625-3.349,7.126-3.349s5.18,1.552,7.127,3.348c2.031,1.875,4.332,4,8.791,4s6.756-2.124,8.786-4c1.945-1.8,3.626-3.349,7.127-3.349s5.183,1.552,7.132,3.349c2.029,1.874,4.331,4,8.791,4s6.761-2.124,8.791-4c1.942-1.791,3.622-3.337,7.1-3.346s5.167,1.554,7.109,3.346c2.028,1.874,4.329,4,8.784,4s6.756-2.124,8.787-4c1.945-1.8,3.626-3.349,7.126-3.349s5.18,1.552,7.126,3.348c2.031,1.875,4.333,4,8.791,4s6.756-2.124,8.787-4c1.945-1.8,3.626-3.349,7.126-3.349s5.183,1.552,7.132,3.349c2.03,1.874,4.331,4,8.791,4s6.761-2.124,8.791-4c1.948-1.8,3.63-3.349,7.132-3.349.038,0,.06-.037.1-.04s.06.042.1.042c3.5,0,5.178,1.552,7.124,3.347,2.028,1.874,4.329,4,8.784,4s6.755-2.124,8.787-4c1.945-1.8,3.625-3.349,7.125-3.349s5.18,1.552,7.127,3.348c2.031,1.875,4.333,4,8.79,4s6.757-2.124,8.788-4c1.945-1.8,3.626-3.349,7.126-3.349S-997.542,4-995.594,5.8c2.03,1.874,4.332,4,8.792,4s6.761-2.124,8.79-4c1.942-1.791,3.622-3.337,7.1-3.346S-965.744,4-963.8,5.8c2.029,1.874,4.329,4,8.784,4s6.757-2.124,8.788-4c1.944-1.8,3.625-3.349,7.124-3.349S-933.924,4-931.979,5.8c2.032,1.875,4.333,4,8.791,4s6.756-2.124,8.787-4c1.945-1.8,3.626-3.349,7.125-3.349S-902.091,4-900.143,5.8c2.03,1.874,4.331,4,8.791,4s6.761-2.124,8.792-4c1.942-1.791,3.621-3.337,7.1-3.346S-870.293,4-868.351,5.8c2.03,1.874,4.33,4,8.786,4s6.755-2.124,8.786-4c1.944-1.8,3.625-3.349,7.125-3.349S-838.474,4-836.527,5.8c2.031,1.875,4.332,4,8.79,4s6.756-2.124,8.787-4c1.946-1.8,3.626-3.349,7.126-3.349S-806.64,4-804.693,5.8c2.031,1.874,4.332,4,8.792,4s6.761-2.124,8.792-4c1.947-1.8,3.63-3.349,7.132-3.349a1.223,1.223,0,0,0,1.224-1.224A1.223,1.223,0,0,0-779.978,0" transform="translate(1354.194)" fill="#d54b1a"/></g><g transform="translate(961.56 9881.39)"><path d="M-779.978,0h0c-4.46,0-6.762,2.123-8.792,4-1.947,1.8-3.63,3.348-7.132,3.348S-801.085,5.793-803.034,4c-2.029-1.874-4.331-4-8.791-4s-6.758,2.123-8.787,4c-1.945,1.8-3.626,3.347-7.125,3.347S-832.919,5.794-834.866,4c-2.03-1.874-4.331-4-8.788-4s-6.757,2.123-8.788,4c-1.945,1.8-3.626,3.347-7.123,3.347S-864.744,5.794-866.689,4C-868.707,2.134-871,.026-875.409,0c-.006,0-.013,0-.019,0h0l-.027,0-.019,0c-.006,0-.01,0-.016,0C-879.907.024-882.2,2.132-884.219,4c-1.948,1.8-3.63,3.348-7.132,3.348S-896.536,5.793-898.483,4c-2.031-1.874-4.332-4-8.792-4s-6.758,2.123-8.788,4c-1.946,1.8-3.627,3.347-7.125,3.347S-928.37,5.794-930.317,4c-2.03-1.874-4.332-4-8.788-4s-6.758,2.123-8.787,4c-1.945,1.8-3.626,3.347-7.125,3.347S-960.194,5.794-962.14,4C-964.157,2.134-966.45.026-970.859,0c-.007,0-.012,0-.02,0l-.026,0-.019,0c-.005,0-.011,0-.016,0-4.417.021-6.71,2.129-8.731,3.993-1.947,1.8-3.629,3.348-7.132,3.348S-991.987,5.793-993.935,4c-2.029-1.874-4.33-4-8.79-4s-6.759,2.123-8.788,4c-1.946,1.8-3.627,3.347-7.126,3.347s-5.182-1.551-7.129-3.348c-2.028-1.874-4.331-4-8.788-4s-6.757,2.123-8.787,4c-1.946,1.8-3.627,3.347-7.125,3.347s-5.177-1.552-7.122-3.348c-2.029-1.874-4.329-4-8.785-4-.038,0-.061.038-.1.041s-.06-.041-.1-.041c-4.459,0-6.762,2.123-8.791,4-1.948,1.8-3.629,3.348-7.131,3.348s-5.184-1.552-7.132-3.348c-2.03-1.874-4.332-4-8.791-4s-6.759,2.123-8.788,4c-1.946,1.8-3.626,3.347-7.125,3.347s-5.182-1.551-7.13-3.348c-2.029-1.874-4.331-4-8.787-4s-6.758,2.123-8.788,4c-1.945,1.8-3.627,3.347-7.125,3.347s-5.177-1.552-7.122-3.348C-1155.3,2.134-1157.593.026-1162,0c-.007,0-.012,0-.02,0l-.026,0-.019,0c-.005,0-.011,0-.016,0-4.417.021-6.71,2.129-8.73,3.993-1.947,1.8-3.63,3.348-7.132,3.348s-5.184-1.552-7.132-3.348c-2.03-1.874-4.332-4-8.79-4s-6.759,2.123-8.788,4c-1.945,1.8-3.626,3.347-7.125,3.347s-5.182-1.551-7.13-3.348c-2.029-1.874-4.33-4-8.787-4s-6.758,2.123-8.788,4c-1.945,1.8-3.626,3.347-7.124,3.347s-5.177-1.552-7.123-3.348c-2.018-1.864-4.31-3.971-8.72-3.993-.007,0-.012,0-.02,0h0l-.026,0-.018,0c-.006,0-.01,0-.016,0-4.417.021-6.711,2.129-8.73,3.993-1.947,1.8-3.63,3.348-7.132,3.348s-5.185-1.552-7.132-3.348c-2.03-1.874-4.332-4-8.792-4s-6.758,2.123-8.788,4c-1.945,1.8-3.626,3.347-7.125,3.347s-5.183-1.551-7.13-3.348c-2.028-1.874-4.331-4-8.787-4s-6.759,2.123-8.788,4c-1.946,1.8-3.626,3.347-7.124,3.347s-5.177-1.552-7.123-3.348c-2.029-1.874-4.33-4-8.785-4a1.225,1.225,0,0,0-1.225,1.225,1.225,1.225,0,0,0,1.225,1.224c3.5,0,5.177,1.552,7.122,3.347,2.03,1.874,4.33,4,8.785,4s6.755-2.124,8.786-4c1.944-1.8,3.625-3.349,7.126-3.349s5.18,1.552,7.127,3.348c2.031,1.875,4.332,4,8.791,4s6.756-2.124,8.786-4c1.945-1.8,3.627-3.349,7.126-3.349s5.184,1.552,7.132,3.349c2.031,1.874,4.333,4,8.792,4s6.762-2.124,8.792-4c1.942-1.791,3.622-3.337,7.1-3.346S-1252.338,4-1250.4,5.8c2.029,1.874,4.328,4,8.784,4s6.756-2.124,8.786-4c1.945-1.8,3.625-3.349,7.126-3.349s5.18,1.552,7.127,3.348c2.031,1.875,4.332,4,8.791,4s6.756-2.124,8.786-4c1.945-1.8,3.626-3.349,7.127-3.349s5.183,1.552,7.132,3.349c2.029,1.874,4.331,4,8.791,4s6.761-2.124,8.791-4c1.942-1.791,3.622-3.337,7.1-3.346s5.167,1.554,7.109,3.346c2.028,1.874,4.329,4,8.784,4s6.756-2.124,8.787-4c1.945-1.8,3.626-3.349,7.126-3.349s5.18,1.552,7.126,3.348c2.031,1.875,4.333,4,8.791,4s6.756-2.124,8.787-4c1.945-1.8,3.626-3.349,7.126-3.349s5.183,1.552,7.132,3.349c2.03,1.874,4.331,4,8.791,4s6.761-2.124,8.791-4c1.948-1.8,3.63-3.349,7.132-3.349.038,0,.06-.037.1-.04s.06.042.1.042c3.5,0,5.178,1.552,7.124,3.347,2.028,1.874,4.329,4,8.784,4s6.755-2.124,8.787-4c1.945-1.8,3.625-3.349,7.125-3.349s5.18,1.552,7.127,3.348c2.031,1.875,4.333,4,8.79,4s6.757-2.124,8.788-4c1.945-1.8,3.626-3.349,7.126-3.349S-997.542,4-995.594,5.8c2.03,1.874,4.332,4,8.792,4s6.761-2.124,8.79-4c1.942-1.791,3.622-3.337,7.1-3.346S-965.744,4-963.8,5.8c2.029,1.874,4.329,4,8.784,4s6.757-2.124,8.788-4c1.944-1.8,3.625-3.349,7.124-3.349S-933.924,4-931.979,5.8c2.032,1.875,4.333,4,8.791,4s6.756-2.124,8.787-4c1.945-1.8,3.626-3.349,7.125-3.349S-902.091,4-900.143,5.8c2.03,1.874,4.331,4,8.791,4s6.761-2.124,8.792-4c1.942-1.791,3.621-3.337,7.1-3.346S-870.293,4-868.351,5.8c2.03,1.874,4.33,4,8.786,4s6.755-2.124,8.786-4c1.944-1.8,3.625-3.349,7.125-3.349S-838.474,4-836.527,5.8c2.031,1.875,4.332,4,8.79,4s6.756-2.124,8.787-4c1.946-1.8,3.626-3.349,7.126-3.349S-806.64,4-804.693,5.8c2.031,1.874,4.332,4,8.792,4s6.761-2.124,8.792-4c1.947-1.8,3.63-3.349,7.132-3.349a1.223,1.223,0,0,0,1.224-1.224A1.223,1.223,0,0,0-779.978,0" transform="translate(1354.194)" fill="#d54b1a"/></g><g transform="translate(332 10108)"><g transform="translate(0 -283)" clip-path="url(#a)"><path d="M-163-81.5a60,60,0,0,1-60,60,60,60,0,0,1-60-60,60,60,0,0,1,60-60,60,60,0,0,1,60,60" transform="translate(283 141.5)" fill="#d44a1a"/></g><g transform="translate(0 -283)" clip-path="url(#b)"><g transform="translate(-227.887 56.389)"><path d="M-779.978,0h0c-4.46,0-6.762,2.123-8.792,4-1.947,1.8-3.63,3.348-7.132,3.348S-801.085,5.793-803.034,4c-2.029-1.874-4.331-4-8.791-4s-6.758,2.123-8.787,4c-1.945,1.8-3.626,3.347-7.125,3.347S-832.919,5.794-834.866,4c-2.03-1.874-4.331-4-8.788-4s-6.757,2.123-8.788,4c-1.945,1.8-3.626,3.347-7.123,3.347S-864.744,5.794-866.689,4C-868.707,2.134-871,.026-875.409,0c-.006,0-.013,0-.019,0h0l-.027,0-.019,0c-.006,0-.01,0-.016,0C-879.907.024-882.2,2.132-884.219,4c-1.948,1.8-3.63,3.348-7.132,3.348S-896.536,5.793-898.483,4c-2.031-1.874-4.332-4-8.792-4s-6.758,2.123-8.788,4c-1.946,1.8-3.627,3.347-7.125,3.347S-928.37,5.794-930.317,4c-2.03-1.874-4.332-4-8.788-4s-6.758,2.123-8.787,4c-1.945,1.8-3.626,3.347-7.125,3.347S-960.194,5.794-962.14,4C-964.157,2.134-966.45.026-970.859,0c-.007,0-.012,0-.02,0l-.026,0-.019,0c-.005,0-.011,0-.016,0-4.417.021-6.71,2.129-8.731,3.993-1.947,1.8-3.629,3.348-7.132,3.348S-991.987,5.793-993.935,4c-2.029-1.874-4.33-4-8.79-4s-6.759,2.123-8.788,4c-1.946,1.8-3.627,3.347-7.126,3.347s-5.182-1.551-7.129-3.348c-2.028-1.874-4.331-4-8.788-4s-6.757,2.123-8.787,4c-1.946,1.8-3.627,3.347-7.125,3.347s-5.177-1.552-7.122-3.348c-2.029-1.874-4.329-4-8.785-4-.038,0-.061.038-.1.041s-.06-.041-.1-.041c-4.459,0-6.762,2.123-8.791,4-1.948,1.8-3.629,3.348-7.131,3.348s-5.184-1.552-7.132-3.348c-2.03-1.874-4.332-4-8.791-4s-6.759,2.123-8.788,4c-1.946,1.8-3.626,3.347-7.125,3.347s-5.182-1.551-7.13-3.348c-2.029-1.874-4.331-4-8.787-4s-6.758,2.123-8.788,4c-1.945,1.8-3.627,3.347-7.125,3.347s-5.177-1.552-7.122-3.348C-1155.3,2.134-1157.593.026-1162,0c-.007,0-.012,0-.02,0l-.026,0-.019,0c-.005,0-.011,0-.016,0-4.417.021-6.71,2.129-8.73,3.993-1.947,1.8-3.63,3.348-7.132,3.348s-5.184-1.552-7.132-3.348c-2.03-1.874-4.332-4-8.79-4s-6.759,2.123-8.788,4c-1.945,1.8-3.626,3.347-7.125,3.347s-5.182-1.551-7.13-3.348c-2.029-1.874-4.33-4-8.787-4s-6.758,2.123-8.788,4c-1.945,1.8-3.626,3.347-7.124,3.347s-5.177-1.552-7.123-3.348c-2.018-1.864-4.31-3.971-8.72-3.993-.007,0-.012,0-.02,0h0l-.026,0-.018,0c-.006,0-.01,0-.016,0-4.417.021-6.711,2.129-8.73,3.993-1.947,1.8-3.63,3.348-7.132,3.348s-5.185-1.552-7.132-3.348c-2.03-1.874-4.332-4-8.792-4s-6.758,2.123-8.788,4c-1.945,1.8-3.626,3.347-7.125,3.347s-5.183-1.551-7.13-3.348c-2.028-1.874-4.331-4-8.787-4s-6.759,2.123-8.788,4c-1.946,1.8-3.626,3.347-7.124,3.347s-5.177-1.552-7.123-3.348c-2.029-1.874-4.33-4-8.785-4a1.225,1.225,0,0,0-1.225,1.225,1.225,1.225,0,0,0,1.225,1.224c3.5,0,5.177,1.552,7.122,3.347,2.03,1.874,4.33,4,8.785,4s6.755-2.124,8.786-4c1.944-1.8,3.625-3.349,7.126-3.349s5.18,1.552,7.127,3.348c2.031,1.875,4.332,4,8.791,4s6.756-2.124,8.786-4c1.945-1.8,3.627-3.349,7.126-3.349s5.184,1.552,7.132,3.349c2.031,1.874,4.333,4,8.792,4s6.762-2.124,8.792-4c1.942-1.791,3.622-3.337,7.1-3.346S-1252.338,4-1250.4,5.8c2.029,1.874,4.328,4,8.784,4s6.756-2.124,8.786-4c1.945-1.8,3.625-3.349,7.126-3.349s5.18,1.552,7.127,3.348c2.031,1.875,4.332,4,8.791,4s6.756-2.124,8.786-4c1.945-1.8,3.626-3.349,7.127-3.349s5.183,1.552,7.132,3.349c2.029,1.874,4.331,4,8.791,4s6.761-2.124,8.791-4c1.942-1.791,3.622-3.337,7.1-3.346s5.167,1.554,7.109,3.346c2.028,1.874,4.329,4,8.784,4s6.756-2.124,8.787-4c1.945-1.8,3.626-3.349,7.126-3.349s5.18,1.552,7.126,3.348c2.031,1.875,4.333,4,8.791,4s6.756-2.124,8.787-4c1.945-1.8,3.626-3.349,7.126-3.349s5.183,1.552,7.132,3.349c2.03,1.874,4.331,4,8.791,4s6.761-2.124,8.791-4c1.948-1.8,3.63-3.349,7.132-3.349.038,0,.06-.037.1-.04s.06.042.1.042c3.5,0,5.178,1.552,7.124,3.347,2.028,1.874,4.329,4,8.784,4s6.755-2.124,8.787-4c1.945-1.8,3.625-3.349,7.125-3.349s5.18,1.552,7.127,3.348c2.031,1.875,4.333,4,8.79,4s6.757-2.124,8.788-4c1.945-1.8,3.626-3.349,7.126-3.349S-997.542,4-995.594,5.8c2.03,1.874,4.332,4,8.792,4s6.761-2.124,8.79-4c1.942-1.791,3.622-3.337,7.1-3.346S-965.744,4-963.8,5.8c2.029,1.874,4.329,4,8.784,4s6.757-2.124,8.788-4c1.944-1.8,3.625-3.349,7.124-3.349S-933.924,4-931.979,5.8c2.032,1.875,4.333,4,8.791,4s6.756-2.124,8.787-4c1.945-1.8,3.626-3.349,7.125-3.349S-902.091,4-900.143,5.8c2.03,1.874,4.331,4,8.791,4s6.761-2.124,8.792-4c1.942-1.791,3.621-3.337,7.1-3.346S-870.293,4-868.351,5.8c2.03,1.874,4.33,4,8.786,4s6.755-2.124,8.786-4c1.944-1.8,3.625-3.349,7.125-3.349S-838.474,4-836.527,5.8c2.031,1.875,4.332,4,8.79,4s6.756-2.124,8.787-4c1.946-1.8,3.626-3.349,7.126-3.349S-806.64,4-804.693,5.8c2.031,1.874,4.332,4,8.792,4s6.761-2.124,8.792-4c1.947-1.8,3.63-3.349,7.132-3.349a1.223,1.223,0,0,0,1.224-1.224A1.223,1.223,0,0,0-779.978,0" transform="translate(1354.194)" fill="#fff"/></g></g></g><g transform="translate(885 10108)"><g transform="translate(0 -283)" clip-path="url(#a)"><path d="M-163-81.5a60,60,0,0,1-60,60,60,60,0,0,1-60-60,60,60,0,0,1,60-60,60,60,0,0,1,60,60" transform="translate(283 141.5)" fill="#d44a1a"/></g><g transform="translate(0 -283)" clip-path="url(#b)"><g transform="translate(-227.887 56.389)"><path d="M-779.978,0h0c-4.46,0-6.762,2.123-8.792,4-1.947,1.8-3.63,3.348-7.132,3.348S-801.085,5.793-803.034,4c-2.029-1.874-4.331-4-8.791-4s-6.758,2.123-8.787,4c-1.945,1.8-3.626,3.347-7.125,3.347S-832.919,5.794-834.866,4c-2.03-1.874-4.331-4-8.788-4s-6.757,2.123-8.788,4c-1.945,1.8-3.626,3.347-7.123,3.347S-864.744,5.794-866.689,4C-868.707,2.134-871,.026-875.409,0c-.006,0-.013,0-.019,0h0l-.027,0-.019,0c-.006,0-.01,0-.016,0C-879.907.024-882.2,2.132-884.219,4c-1.948,1.8-3.63,3.348-7.132,3.348S-896.536,5.793-898.483,4c-2.031-1.874-4.332-4-8.792-4s-6.758,2.123-8.788,4c-1.946,1.8-3.627,3.347-7.125,3.347S-928.37,5.794-930.317,4c-2.03-1.874-4.332-4-8.788-4s-6.758,2.123-8.787,4c-1.945,1.8-3.626,3.347-7.125,3.347S-960.194,5.794-962.14,4C-964.157,2.134-966.45.026-970.859,0c-.007,0-.012,0-.02,0l-.026,0-.019,0c-.005,0-.011,0-.016,0-4.417.021-6.71,2.129-8.731,3.993-1.947,1.8-3.629,3.348-7.132,3.348S-991.987,5.793-993.935,4c-2.029-1.874-4.33-4-8.79-4s-6.759,2.123-8.788,4c-1.946,1.8-3.627,3.347-7.126,3.347s-5.182-1.551-7.129-3.348c-2.028-1.874-4.331-4-8.788-4s-6.757,2.123-8.787,4c-1.946,1.8-3.627,3.347-7.125,3.347s-5.177-1.552-7.122-3.348c-2.029-1.874-4.329-4-8.785-4-.038,0-.061.038-.1.041s-.06-.041-.1-.041c-4.459,0-6.762,2.123-8.791,4-1.948,1.8-3.629,3.348-7.131,3.348s-5.184-1.552-7.132-3.348c-2.03-1.874-4.332-4-8.791-4s-6.759,2.123-8.788,4c-1.946,1.8-3.626,3.347-7.125,3.347s-5.182-1.551-7.13-3.348c-2.029-1.874-4.331-4-8.787-4s-6.758,2.123-8.788,4c-1.945,1.8-3.627,3.347-7.125,3.347s-5.177-1.552-7.122-3.348C-1155.3,2.134-1157.593.026-1162,0c-.007,0-.012,0-.02,0l-.026,0-.019,0c-.005,0-.011,0-.016,0-4.417.021-6.71,2.129-8.73,3.993-1.947,1.8-3.63,3.348-7.132,3.348s-5.184-1.552-7.132-3.348c-2.03-1.874-4.332-4-8.79-4s-6.759,2.123-8.788,4c-1.945,1.8-3.626,3.347-7.125,3.347s-5.182-1.551-7.13-3.348c-2.029-1.874-4.33-4-8.787-4s-6.758,2.123-8.788,4c-1.945,1.8-3.626,3.347-7.124,3.347s-5.177-1.552-7.123-3.348c-2.018-1.864-4.31-3.971-8.72-3.993-.007,0-.012,0-.02,0h0l-.026,0-.018,0c-.006,0-.01,0-.016,0-4.417.021-6.711,2.129-8.73,3.993-1.947,1.8-3.63,3.348-7.132,3.348s-5.185-1.552-7.132-3.348c-2.03-1.874-4.332-4-8.792-4s-6.758,2.123-8.788,4c-1.945,1.8-3.626,3.347-7.125,3.347s-5.183-1.551-7.13-3.348c-2.028-1.874-4.331-4-8.787-4s-6.759,2.123-8.788,4c-1.946,1.8-3.626,3.347-7.124,3.347s-5.177-1.552-7.123-3.348c-2.029-1.874-4.33-4-8.785-4a1.225,1.225,0,0,0-1.225,1.225,1.225,1.225,0,0,0,1.225,1.224c3.5,0,5.177,1.552,7.122,3.347,2.03,1.874,4.33,4,8.785,4s6.755-2.124,8.786-4c1.944-1.8,3.625-3.349,7.126-3.349s5.18,1.552,7.127,3.348c2.031,1.875,4.332,4,8.791,4s6.756-2.124,8.786-4c1.945-1.8,3.627-3.349,7.126-3.349s5.184,1.552,7.132,3.349c2.031,1.874,4.333,4,8.792,4s6.762-2.124,8.792-4c1.942-1.791,3.622-3.337,7.1-3.346S-1252.338,4-1250.4,5.8c2.029,1.874,4.328,4,8.784,4s6.756-2.124,8.786-4c1.945-1.8,3.625-3.349,7.126-3.349s5.18,1.552,7.127,3.348c2.031,1.875,4.332,4,8.791,4s6.756-2.124,8.786-4c1.945-1.8,3.626-3.349,7.127-3.349s5.183,1.552,7.132,3.349c2.029,1.874,4.331,4,8.791,4s6.761-2.124,8.791-4c1.942-1.791,3.622-3.337,7.1-3.346s5.167,1.554,7.109,3.346c2.028,1.874,4.329,4,8.784,4s6.756-2.124,8.787-4c1.945-1.8,3.626-3.349,7.126-3.349s5.18,1.552,7.126,3.348c2.031,1.875,4.333,4,8.791,4s6.756-2.124,8.787-4c1.945-1.8,3.626-3.349,7.126-3.349s5.183,1.552,7.132,3.349c2.03,1.874,4.331,4,8.791,4s6.761-2.124,8.791-4c1.948-1.8,3.63-3.349,7.132-3.349.038,0,.06-.037.1-.04s.06.042.1.042c3.5,0,5.178,1.552,7.124,3.347,2.028,1.874,4.329,4,8.784,4s6.755-2.124,8.787-4c1.945-1.8,3.625-3.349,7.125-3.349s5.18,1.552,7.127,3.348c2.031,1.875,4.333,4,8.79,4s6.757-2.124,8.788-4c1.945-1.8,3.626-3.349,7.126-3.349S-997.542,4-995.594,5.8c2.03,1.874,4.332,4,8.792,4s6.761-2.124,8.79-4c1.942-1.791,3.622-3.337,7.1-3.346S-965.744,4-963.8,5.8c2.029,1.874,4.329,4,8.784,4s6.757-2.124,8.788-4c1.944-1.8,3.625-3.349,7.124-3.349S-933.924,4-931.979,5.8c2.032,1.875,4.333,4,8.791,4s6.756-2.124,8.787-4c1.945-1.8,3.626-3.349,7.125-3.349S-902.091,4-900.143,5.8c2.03,1.874,4.331,4,8.791,4s6.761-2.124,8.792-4c1.942-1.791,3.621-3.337,7.1-3.346S-870.293,4-868.351,5.8c2.03,1.874,4.33,4,8.786,4s6.755-2.124,8.786-4c1.944-1.8,3.625-3.349,7.125-3.349S-838.474,4-836.527,5.8c2.031,1.875,4.332,4,8.79,4s6.756-2.124,8.787-4c1.946-1.8,3.626-3.349,7.126-3.349S-806.64,4-804.693,5.8c2.031,1.874,4.332,4,8.792,4s6.761-2.124,8.792-4c1.947-1.8,3.63-3.349,7.132-3.349a1.223,1.223,0,0,0,1.224-1.224A1.223,1.223,0,0,0-779.978,0" transform="translate(1370.194)" fill="#fff"/></g></g></g><g transform="translate(1436 10108)"><g transform="translate(0 -283)"><path d="M-163-81.5a60,60,0,0,1-60,60,60,60,0,0,1-60-60,60,60,0,0,1,60-60,60,60,0,0,1,60,60" transform="translate(283 141.5)" fill="#d44a1a"/></g><g transform="translate(0 -283)" clip-path="url(#b)"><g transform="translate(-234.887 56.389)"><path d="M-779.978,0h0c-4.46,0-6.762,2.123-8.792,4-1.947,1.8-3.63,3.348-7.132,3.348S-801.085,5.793-803.034,4c-2.029-1.874-4.331-4-8.791-4s-6.758,2.123-8.787,4c-1.945,1.8-3.626,3.347-7.125,3.347S-832.919,5.794-834.866,4c-2.03-1.874-4.331-4-8.788-4s-6.757,2.123-8.788,4c-1.945,1.8-3.626,3.347-7.123,3.347S-864.744,5.794-866.689,4C-868.707,2.134-871,.026-875.409,0c-.006,0-.013,0-.019,0h0l-.027,0-.019,0c-.006,0-.01,0-.016,0C-879.907.024-882.2,2.132-884.219,4c-1.948,1.8-3.63,3.348-7.132,3.348S-896.536,5.793-898.483,4c-2.031-1.874-4.332-4-8.792-4s-6.758,2.123-8.788,4c-1.946,1.8-3.627,3.347-7.125,3.347S-928.37,5.794-930.317,4c-2.03-1.874-4.332-4-8.788-4s-6.758,2.123-8.787,4c-1.945,1.8-3.626,3.347-7.125,3.347S-960.194,5.794-962.14,4C-964.157,2.134-966.45.026-970.859,0c-.007,0-.012,0-.02,0l-.026,0-.019,0c-.005,0-.011,0-.016,0-4.417.021-6.71,2.129-8.731,3.993-1.947,1.8-3.629,3.348-7.132,3.348S-991.987,5.793-993.935,4c-2.029-1.874-4.33-4-8.79-4s-6.759,2.123-8.788,4c-1.946,1.8-3.627,3.347-7.126,3.347s-5.182-1.551-7.129-3.348c-2.028-1.874-4.331-4-8.788-4s-6.757,2.123-8.787,4c-1.946,1.8-3.627,3.347-7.125,3.347s-5.177-1.552-7.122-3.348c-2.029-1.874-4.329-4-8.785-4-.038,0-.061.038-.1.041s-.06-.041-.1-.041c-4.459,0-6.762,2.123-8.791,4-1.948,1.8-3.629,3.348-7.131,3.348s-5.184-1.552-7.132-3.348c-2.03-1.874-4.332-4-8.791-4s-6.759,2.123-8.788,4c-1.946,1.8-3.626,3.347-7.125,3.347s-5.182-1.551-7.13-3.348c-2.029-1.874-4.331-4-8.787-4s-6.758,2.123-8.788,4c-1.945,1.8-3.627,3.347-7.125,3.347s-5.177-1.552-7.122-3.348C-1155.3,2.134-1157.593.026-1162,0c-.007,0-.012,0-.02,0l-.026,0-.019,0c-.005,0-.011,0-.016,0-4.417.021-6.71,2.129-8.73,3.993-1.947,1.8-3.63,3.348-7.132,3.348s-5.184-1.552-7.132-3.348c-2.03-1.874-4.332-4-8.79-4s-6.759,2.123-8.788,4c-1.945,1.8-3.626,3.347-7.125,3.347s-5.182-1.551-7.13-3.348c-2.029-1.874-4.33-4-8.787-4s-6.758,2.123-8.788,4c-1.945,1.8-3.626,3.347-7.124,3.347s-5.177-1.552-7.123-3.348c-2.018-1.864-4.31-3.971-8.72-3.993-.007,0-.012,0-.02,0h0l-.026,0-.018,0c-.006,0-.01,0-.016,0-4.417.021-6.711,2.129-8.73,3.993-1.947,1.8-3.63,3.348-7.132,3.348s-5.185-1.552-7.132-3.348c-2.03-1.874-4.332-4-8.792-4s-6.758,2.123-8.788,4c-1.945,1.8-3.626,3.347-7.125,3.347s-5.183-1.551-7.13-3.348c-2.028-1.874-4.331-4-8.787-4s-6.759,2.123-8.788,4c-1.946,1.8-3.626,3.347-7.124,3.347s-5.177-1.552-7.123-3.348c-2.029-1.874-4.33-4-8.785-4a1.225,1.225,0,0,0-1.225,1.225,1.225,1.225,0,0,0,1.225,1.224c3.5,0,5.177,1.552,7.122,3.347,2.03,1.874,4.33,4,8.785,4s6.755-2.124,8.786-4c1.944-1.8,3.625-3.349,7.126-3.349s5.18,1.552,7.127,3.348c2.031,1.875,4.332,4,8.791,4s6.756-2.124,8.786-4c1.945-1.8,3.627-3.349,7.126-3.349s5.184,1.552,7.132,3.349c2.031,1.874,4.333,4,8.792,4s6.762-2.124,8.792-4c1.942-1.791,3.622-3.337,7.1-3.346S-1252.338,4-1250.4,5.8c2.029,1.874,4.328,4,8.784,4s6.756-2.124,8.786-4c1.945-1.8,3.625-3.349,7.126-3.349s5.18,1.552,7.127,3.348c2.031,1.875,4.332,4,8.791,4s6.756-2.124,8.786-4c1.945-1.8,3.626-3.349,7.127-3.349s5.183,1.552,7.132,3.349c2.029,1.874,4.331,4,8.791,4s6.761-2.124,8.791-4c1.942-1.791,3.622-3.337,7.1-3.346s5.167,1.554,7.109,3.346c2.028,1.874,4.329,4,8.784,4s6.756-2.124,8.787-4c1.945-1.8,3.626-3.349,7.126-3.349s5.18,1.552,7.126,3.348c2.031,1.875,4.333,4,8.791,4s6.756-2.124,8.787-4c1.945-1.8,3.626-3.349,7.126-3.349s5.183,1.552,7.132,3.349c2.03,1.874,4.331,4,8.791,4s6.761-2.124,8.791-4c1.948-1.8,3.63-3.349,7.132-3.349.038,0,.06-.037.1-.04s.06.042.1.042c3.5,0,5.178,1.552,7.124,3.347,2.028,1.874,4.329,4,8.784,4s6.755-2.124,8.787-4c1.945-1.8,3.625-3.349,7.125-3.349s5.18,1.552,7.127,3.348c2.031,1.875,4.333,4,8.79,4s6.757-2.124,8.788-4c1.945-1.8,3.626-3.349,7.126-3.349S-997.542,4-995.594,5.8c2.03,1.874,4.332,4,8.792,4s6.761-2.124,8.79-4c1.942-1.791,3.622-3.337,7.1-3.346S-965.744,4-963.8,5.8c2.029,1.874,4.329,4,8.784,4s6.757-2.124,8.788-4c1.944-1.8,3.625-3.349,7.124-3.349S-933.924,4-931.979,5.8c2.032,1.875,4.333,4,8.791,4s6.756-2.124,8.787-4c1.945-1.8,3.626-3.349,7.125-3.349S-902.091,4-900.143,5.8c2.03,1.874,4.331,4,8.791,4s6.761-2.124,8.792-4c1.942-1.791,3.621-3.337,7.1-3.346S-870.293,4-868.351,5.8c2.03,1.874,4.33,4,8.786,4s6.755-2.124,8.786-4c1.944-1.8,3.625-3.349,7.125-3.349S-838.474,4-836.527,5.8c2.031,1.875,4.332,4,8.79,4s6.756-2.124,8.787-4c1.946-1.8,3.626-3.349,7.126-3.349S-806.64,4-804.693,5.8c2.031,1.874,4.332,4,8.792,4s6.761-2.124,8.792-4c1.947-1.8,3.63-3.349,7.132-3.349a1.223,1.223,0,0,0,1.224-1.224A1.223,1.223,0,0,0-779.978,0" transform="translate(1370.194)" fill="#fff"/></g></g></g></g></g></svg>