<svg xmlns="http://www.w3.org/2000/svg" width="120" height="120" viewBox="0 0 120 120"><path d="M120,60A60,60,0,1,1,60,0a60.048,60.048,0,0,1,60,60" fill="#d44a1b"/><path d="M60,42A17.7,17.7,0,1,0,77.7,59.7,17.733,17.733,0,0,0,60,42ZM75.2,59.7A15.2,15.2,0,1,1,60,44.5,15.193,15.193,0,0,1,75.2,59.7Z" fill="#fff"/><path d="M93.5,53.5l-7.4-2a28.922,28.922,0,0,0-1.8-4.4l3.8-6.7a1.212,1.212,0,0,0-.2-1.5l-7.1-7a1.212,1.212,0,0,0-1.5-.2l-6.7,3.8a25.251,25.251,0,0,0-4.4-1.8l-2-7.4a1.2,1.2,0,0,0-1.2-.9H55a1.2,1.2,0,0,0-1.2.9l-2,7.4a25.251,25.251,0,0,0-4.4,1.8l-6.7-3.8a1.212,1.212,0,0,0-1.5.2l-7.1,7a1.212,1.212,0,0,0-.2,1.5l3.8,6.7a33.827,33.827,0,0,0-1.8,4.4l-7.4,2a1.292,1.292,0,0,0-.9,1.2v10a1.2,1.2,0,0,0,.9,1.2L33.9,68a33.827,33.827,0,0,0,1.8,4.4l-3.8,6.7a1.212,1.212,0,0,0,.2,1.5l7.1,7a1.212,1.212,0,0,0,1.5.2L47.4,84a33.828,33.828,0,0,0,4.4,1.8l2.1,7.4a1.2,1.2,0,0,0,1.2.9h10a1.2,1.2,0,0,0,1.2-.9l2-7.4A33.827,33.827,0,0,0,72.7,84l6.7,3.8a1.212,1.212,0,0,0,1.5-.2l7.1-7a1.212,1.212,0,0,0,.2-1.5l-3.8-6.7A28.922,28.922,0,0,0,86.2,68l7.4-2.1a1.2,1.2,0,0,0,.9-1.2v-10a1.2,1.2,0,0,0-.9-1.2ZM83.9,66.6a26.905,26.905,0,0,1-2.1,5.2,1.275,1.275,0,0,0,0,1.2l3.7,6.5-5.7,5.7-6.4-3.7a1.275,1.275,0,0,0-1.2,0A33.767,33.767,0,0,1,67,83.7a1.591,1.591,0,0,0-.9.9l-2,7.2H56l-2-7.2a1.345,1.345,0,0,0-.9-.9,23.894,23.894,0,0,1-5.2-2.2,1.275,1.275,0,0,0-1.2,0l-6.4,3.7-5.7-5.7L38.3,73a1.275,1.275,0,0,0,0-1.2,23.6,23.6,0,0,1-2.1-5.2,1.352,1.352,0,0,0-.9-.9l-7.2-2V55.6l7.2-2a1.182,1.182,0,0,0,.9-.9,25.748,25.748,0,0,1,2.1-5.2,1.275,1.275,0,0,0,0-1.2l-3.7-6.5,5.7-5.7,6.4,3.7a1.271,1.271,0,0,0,1.2,0,20.214,20.214,0,0,1,5.2-2.1,1.591,1.591,0,0,0,.9-.9l2-7.2h8.1l2,7.2a1.345,1.345,0,0,0,.9.9,26.905,26.905,0,0,1,5.2,2.1,1.275,1.275,0,0,0,1.2,0l6.4-3.7,5.7,5.7-3.7,6.5a1.275,1.275,0,0,0,0,1.2,21.778,21.778,0,0,1,2.1,5.2,1.345,1.345,0,0,0,.9.9l7.2,2v8.1l-7.2,2A1.345,1.345,0,0,0,83.9,66.6Z" fill="#fff"/></svg>