<svg xmlns="http://www.w3.org/2000/svg" width="120" height="120" viewBox="0 0 120 120"><path d="M120,60A60,60,0,1,1,60,0a60.048,60.048,0,0,1,60,60" fill="#d44a1b"/><path d="M88.8,67.7a1.6,1.6,0,0,0-.7-.9,1.58,1.58,0,0,0-2.1.6,29.556,29.556,0,0,1-52,0,1.272,1.272,0,0,0-.9-.7h-.4a.844.844,0,0,0-.7.2,1.272,1.272,0,0,0-.7.9,2.462,2.462,0,0,0,.1,1.2,32.635,32.635,0,0,0,57.4,0,1.672,1.672,0,0,0,.1-1.2Z" fill="#fff"/><path d="M78.8,34a7.1,7.1,0,1,0,7.1,7.1A7.127,7.127,0,0,0,78.8,34Z" fill="#fff"/><path d="M41.2,34a7.1,7.1,0,1,0,7.1,7.1A7.127,7.127,0,0,0,41.2,34Z" fill="#fff"/></svg>