<svg xmlns="http://www.w3.org/2000/svg" width="120" height="120" viewBox="0 0 120 120"><path d="M120,60A60,60,0,1,1,60,0a60.048,60.048,0,0,1,60,60" fill="#d44a1b"/><path d="M96.4,41.1a1.752,1.752,0,0,0-1.7,1.7V77.2a58.606,58.606,0,0,0-29.9,3.3,21.845,21.845,0,0,1,6.4-4.9c8.9-4.4,17.6-.8,19.3,0h0a1.81,1.81,0,0,0,1.6-.1,1.723,1.723,0,0,0,.8-1.4V37.7a1.539,1.539,0,0,0-1-1.5c-1.9-.9-12-5.1-22.3,0h0A24.85,24.85,0,0,0,60,44.8a24.85,24.85,0,0,0-9.6-8.6c-10.3-5.1-20.3-.9-22.3,0a1.751,1.751,0,0,0-1,1.5V74.1h0a1.6,1.6,0,0,0,.8,1.4,1.542,1.542,0,0,0,1.6.1c1.7-.8,10.4-4.4,19.3,0h0a21.845,21.845,0,0,1,6.4,4.9,59.7,59.7,0,0,0-29.9-3.3V42.8a1.7,1.7,0,0,0-3.4,0V79.2a1.612,1.612,0,0,0,.6,1.3,1.792,1.792,0,0,0,1.4.4,56.615,56.615,0,0,1,35.3,5h1.2a55.931,55.931,0,0,1,35.3-5,1.792,1.792,0,0,0,1.4-.4,1.612,1.612,0,0,0,.6-1.3V42.8A1.707,1.707,0,0,0,96,41.1h.4Zm-25.3-2c7.7-3.8,15.4-1.6,18.3-.4V71.4c-4-1.3-11.9-3-19.8,1h0a23.218,23.218,0,0,0-7.9,6.3V48.4a22.2,22.2,0,0,1,9.4-9.3h0ZM50.4,72.4a24.818,24.818,0,0,0-10.8-2.5,28.457,28.457,0,0,0-9.1,1.5V38.6c2.9-1.2,10.6-3.4,18.3.4h0a22.2,22.2,0,0,1,9.4,9.3V78.6a25.3,25.3,0,0,0-7.9-6.3h0Z" fill="#fff"/></svg>