<svg xmlns="http://www.w3.org/2000/svg" width="120" height="120" viewBox="0 0 120 120"><path d="M120,60A60,60,0,1,1,60,0a60.048,60.048,0,0,1,60,60" fill="#d44a1b"/><path d="M54.6,29.9a4.632,4.632,0,0,0-4.7-4.7H43.6a4.632,4.632,0,0,0-4.7,4.7V85.6a1.486,1.486,0,0,0,.1.6l6.6,12.4a1.133,1.133,0,0,0,2,0l6.6-12.4V86a.988.988,0,0,0,.2-.6V29.9ZM41.3,33.5V29.9a2.263,2.263,0,0,1,2.3-2.3h6.3a2.263,2.263,0,0,1,2.3,2.3v3.6H41.3Zm5.6,19.8a1.155,1.155,0,0,0-1.2,1.2V83.2l-4.5.3V35.8h4.3v5.5a1.2,1.2,0,0,0,2.4,0V35.8h4.4V83.5l-4.2-.3V54.5a1.155,1.155,0,0,0-1.2-1.2Zm5,32.6-5.1,9.6-5.1-9.6,5.3-.4,5,.4Z" fill="#fff"/><path d="M80.8,18a1.155,1.155,0,0,0-1.2-1.2H63.2A1.155,1.155,0,0,0,62,18v85.8a1.155,1.155,0,0,0,1.2,1.2H79.6a1.155,1.155,0,0,0,1.2-1.2ZM69.3,91.8a1.11,1.11,0,0,0-1.1-1.1H64.4V82.5h3.8a1.1,1.1,0,0,0,0-2.2H64.4V72h3.8a1.1,1.1,0,0,0,0-2.2H64.4V61.6h3.8a1.1,1.1,0,0,0,0-2.2H64.4V51.2h3.8a1.1,1.1,0,0,0,0-2.2H64.4V40.8h3.8a1.1,1.1,0,0,0,0-2.2H64.4V30.3h3.8a1.1,1.1,0,0,0,0-2.2H64.4V19h14v83.5h-14V92.8h3.8a1.11,1.11,0,0,0,1.1-1.1Z" fill="#fff"/></svg>