<svg xmlns="http://www.w3.org/2000/svg" width="120" height="120" viewBox="0 0 120 120"><path d="M120,60A60,60,0,1,1,60,0a60.048,60.048,0,0,1,60,60" fill="#d44a1b"/><path d="M32.5,53.7A11.4,11.4,0,0,0,21.1,65.1c0,4.5,5.3,11,9.3,15.8h4.2c4-4.9,9.3-11.4,9.3-15.8A11.4,11.4,0,0,0,32.5,53.7Z" fill="none"/><path d="M38.1,80.9H34.6c-.1.1-.2.3-.3.4h0c-.6.8-1.2,1.5-1.7,2.1-.5-.6-1.1-1.3-1.7-2h0a2.186,2.186,0,0,0-.3-.5H27.1l5.6,6.6,5.6-6.6Z" fill="#fff"/><path d="M21.1,65.1a11.4,11.4,0,1,1,22.8,0c0,4.5-5.3,11-9.3,15.8h3.5c4.2-5.1,8.5-10.9,8.5-15.8a14.1,14.1,0,0,0-28.2,0c0,7.8,4.3,10.7,8.5,15.8h3.5c-4-4.9-9.3-11.4-9.3-15.8Z" fill="#fff"/><path d="M32.5,53.7A11.4,11.4,0,0,0,21.1,65.1c0,4.5,5.3,11,9.3,15.8h4.2c4-4.9,9.3-11.4,9.3-15.8A11.4,11.4,0,0,0,32.5,53.7Z" fill="none"/><path d="M32.5,51A14.084,14.084,0,0,0,18.4,65.1c0,7.8,4.3,10.7,8.5,15.8l5.6,6.6,5.6-6.6c4.2-5.1,8.5-10.9,8.5-15.8A14.084,14.084,0,0,0,32.5,51Zm2.1,29.9c-.1.1-.2.3-.3.4h0c-.6.8-1.2,1.5-1.7,2.1-.5-.6-1.1-1.3-1.7-2h0a2.186,2.186,0,0,0-.3-.5c-4-4.9-9.3-11.4-9.3-15.8a11.4,11.4,0,1,1,22.8,0c0,4.5-5.3,11-9.3,15.8Z" fill="#fff"/><path d="M32.5,73h0a7.832,7.832,0,0,0,7.8-7.9v-.2h0A7.591,7.591,0,0,0,38,59.6a7.807,7.807,0,0,0-5.5-2.3h0A7.85,7.85,0,0,0,32.6,73Zm3.6-11.5a5.1,5.1,0,1,1-8.7,3.6v-.2a4.859,4.859,0,0,1,1.5-3.4A5.075,5.075,0,0,1,32.5,60h0A4.754,4.754,0,0,1,36.1,61.5Z" fill="#fff"/><path d="M75.6,47.5a1.149,1.149,0,0,0-.6-.9,1.232,1.232,0,0,0-1-.2c-4.8,1.1-11.5,3.3-14.9,9.1-2.3,4-2.6,9.2-.7,15.4.9,3,.3,5.3-1.6,7-3.1,2.7-8.6,3-11.6,1.6a1.7,1.7,0,0,0-1,0,1.208,1.208,0,0,0-.7.7,1.7,1.7,0,0,0,0,1,1.208,1.208,0,0,0,.7.7,12.2,12.2,0,0,0,5.3,1h.3a14.091,14.091,0,0,0,8.8-3.1c2-1.7,4-4.8,2.5-9.9-1.6-5.4-1.5-9.9.5-13.3,2.8-4.9,8.8-6.8,13.1-7.8h0a1.435,1.435,0,0,0,1-1.6Z" fill="#fff"/><path d="M87.5,24.9A11.4,11.4,0,0,0,76.1,36.3c0,4.5,5.3,11,9.3,15.8h4.2c4-4.9,9.3-11.4,9.3-15.8A11.4,11.4,0,0,0,87.5,24.9Z" fill="none"/><path d="M93.1,52.1H89.6c-.1.1-.2.3-.3.4h0c-.6.8-1.2,1.5-1.7,2.1-.5-.6-1.1-1.3-1.7-2h0a2.186,2.186,0,0,0-.3-.5H82.1l5.6,6.6,5.6-6.6Z" fill="#fff"/><path d="M76.1,36.3a11.4,11.4,0,0,1,22.8,0c0,4.5-5.3,11-9.3,15.8h3.5c4.2-5.1,8.5-10.9,8.5-15.8a14.1,14.1,0,1,0-28.2,0c0,7.8,4.3,10.7,8.5,15.8h3.5C81.4,47.2,76.1,40.7,76.1,36.3Z" fill="#fff"/><path d="M87.5,24.9A11.4,11.4,0,0,0,76.1,36.3c0,4.5,5.3,11,9.3,15.8h4.2c4-4.9,9.3-11.4,9.3-15.8A11.4,11.4,0,0,0,87.5,24.9Z" fill="none"/><path d="M87.5,22.2A14.084,14.084,0,0,0,73.4,36.3c0,7.8,4.3,10.7,8.5,15.8l5.6,6.6,5.6-6.6c4.2-5.1,8.5-10.9,8.5-15.8A14.084,14.084,0,0,0,87.5,22.2Zm2.1,29.9c-.1.1-.2.3-.3.4h0c-.6.8-1.2,1.5-1.7,2.1-.5-.6-1.1-1.3-1.7-2h0a2.186,2.186,0,0,0-.3-.5c-4-4.9-9.3-11.4-9.3-15.8a11.4,11.4,0,0,1,22.8,0c0,4.5-5.3,11-9.3,15.8Z" fill="#fff"/><path d="M87.5,44.1h0a7.832,7.832,0,0,0,7.8-7.9V36h0A7.591,7.591,0,0,0,93,30.7a7.807,7.807,0,0,0-5.5-2.3h0a7.85,7.85,0,1,0,.1,15.7Zm3.6-11.5a5.1,5.1,0,1,1-8.7,3.6V36a4.859,4.859,0,0,1,1.5-3.4,5.075,5.075,0,0,1,3.6-1.5h0a4.754,4.754,0,0,1,3.6,1.5Z" fill="#fff"/></svg>