<svg xmlns="http://www.w3.org/2000/svg" width="120" height="120" viewBox="0 0 120 120"><path d="M120,60A60,60,0,1,1,60,0a60.048,60.048,0,0,1,60,60" fill="#d44a1b"/><path d="M38.9,91.1,92.1,37.9a1.217,1.217,0,0,0,0-1.6L91,35.2l2.6-2.6h0l.4-.4a1.217,1.217,0,0,0,0-1.6h0l-3.8-3.8a1.217,1.217,0,0,0-1.6,0l-3,3-1.1-1.1a1.217,1.217,0,0,0-1.6,0l-3,3-3-3a1.217,1.217,0,0,0-1.6,0L48.7,55.3a1.131,1.131,0,0,0,1.6,1.6L76.1,31.1l2.2,2.2L29.7,81.9l-.1.1h0v.3h0L25.8,93.7a1.2,1.2,0,0,0,1.5,1.5l11.4-3.8h.2l.2.2h0v-.4Zm50.6-62,2.2,2.2-2.2,2.2-2.2-2.2,2.2-2.2ZM83.8,31l6,6L68.6,58.2l-6-6ZM28.5,92.3,31,84.8l5,5Zm9.6-3.6-6-6L60.9,53.9l6,6L38.1,88.7Z" fill="#fff"/></svg>