<svg xmlns="http://www.w3.org/2000/svg" width="161.576" height="60.037" viewBox="0 0 161.576 60.037"><g transform="translate(-1.1 -0.5)"><path d="M407.477.5l.81.1a13.521,13.521,0,0,1,4.69,1.449A14.028,14.028,0,0,1,418.2,6.765a1.4,1.4,0,0,0,.091.137,1.363,1.363,0,0,0,.125-.137,13.715,13.715,0,0,1,7.509-5.4,15.249,15.249,0,0,1,2.853-.582,18.306,18.306,0,0,1,3.355-.023,15.874,15.874,0,0,1,3.355.571,16.442,16.442,0,0,1,1.632.6,5.035,5.035,0,0,1,.491.251c-.559,2.431-1.13,4.861-1.689,7.3a.4.4,0,0,1-.137-.034,8.611,8.611,0,0,0-2.682-.879,7.966,7.966,0,0,0-4.382.377,5.7,5.7,0,0,0-3.617,4.587,5.867,5.867,0,0,0,1.153,4.69,6.088,6.088,0,0,0,3.229,2.145,9.157,9.157,0,0,0,2.841.342,12.339,12.339,0,0,0,3.412-.559c.194-.068.388-.148.616-.228a.817.817,0,0,1-.023.251c-.559,2.431-1.13,4.861-1.689,7.292a.331.331,0,0,1-.308.308,17.429,17.429,0,0,1-2.545.32c-.559.023-1.118.068-1.666.046A15.064,15.064,0,0,1,420.7,24.67a12.09,12.09,0,0,1-2.225-2.476c-.046-.057-.08-.126-.126-.183,0-.011-.023-.023-.046-.046a14.032,14.032,0,0,1-22.389,1.483h-.023a.04.04,0,0,0-.011.023v4.074c-.205.057-16.627.08-17.083.023V1.265c.205-.057,8.479-.068,8.81,0V20.527h6.379a1.49,1.49,0,0,0-.08-.217,13.762,13.762,0,0,1-1.232-7.189,13.494,13.494,0,0,1,2.693-7.007A13.738,13.738,0,0,1,403.54.82a10.978,10.978,0,0,1,1.837-.274,1.772,1.772,0,0,0,.24-.046h1.86Zm-.924,8.536a5.392,5.392,0,1,0,5.375,5.409A5.366,5.366,0,0,0,406.553,9.036Z" transform="translate(-334.599)" fill="#484848"/><path d="M828.5,309.89c-.365-.034-.719-.08-1.084-.1a17.887,17.887,0,0,1-6.185-1.552c-.148-.068-.3-.148-.434-.228-.034-.023-.08-.046-.148-.091.5-2.214,1.027-4.416,1.541-6.664.08.034.148.046.217.08a15.431,15.431,0,0,0,3.481,1.1,8.891,8.891,0,0,0,2.91.126,2.971,2.971,0,0,0,1.187-.388,1.012,1.012,0,0,0,.514-1.061.8.8,0,0,0-.445-.616,4.461,4.461,0,0,0-.936-.377c-.662-.183-1.347-.32-2.008-.5a11.247,11.247,0,0,1-3.88-1.883,8.02,8.02,0,0,1-3.093-5.2,9.335,9.335,0,0,1,.308-4.587,8.119,8.119,0,0,1,4.667-5.01,10.361,10.361,0,0,1,2.807-.776,15.61,15.61,0,0,1,2.921-.114,21.266,21.266,0,0,1,5.466.993c.434.137.856.308,1.312.468-.548,2.362-1.084,4.7-1.632,7.041-.388-.137-.753-.274-1.107-.4a16.019,16.019,0,0,0-2.83-.7,6.572,6.572,0,0,0-2.362.046,2.34,2.34,0,0,0-.559.205.833.833,0,0,0-.479.8.8.8,0,0,0,.479.742,4.163,4.163,0,0,0,1.21.388,17.275,17.275,0,0,1,3.686,1.153,10.249,10.249,0,0,1,3.15,2.134,7.839,7.839,0,0,1,2.214,4.485,10.606,10.606,0,0,1-.3,4.519,7.463,7.463,0,0,1-4.234,4.839,10.305,10.305,0,0,1-3,.879c-.753.1-1.518.16-2.282.24a1.685,1.685,0,0,0-.217.034h-.822Z" transform="translate(-725.436 -249.388)" fill="#484848"/><path d="M992.2,310.028c-.354-.034-.708-.08-1.061-.1a18.1,18.1,0,0,1-6.037-1.483c-.251-.114-.491-.251-.753-.377.514-2.225,1.027-4.439,1.552-6.676.354.137.673.274,1,.411a14.708,14.708,0,0,0,3.047.844,8.577,8.577,0,0,0,2.533.068,2.953,2.953,0,0,0,1.187-.377,1.063,1.063,0,0,0,.5-.628.851.851,0,0,0-.342-1,3.939,3.939,0,0,0-.833-.388c-.582-.171-1.175-.3-1.769-.445a12.187,12.187,0,0,1-3.9-1.712,8.054,8.054,0,0,1-3.5-5.6,9.534,9.534,0,0,1,.308-4.428,8.124,8.124,0,0,1,4.542-4.987,10.173,10.173,0,0,1,2.921-.833,15.281,15.281,0,0,1,2.978-.114,21.342,21.342,0,0,1,6.082,1.221c.217.08.422.171.65.262-.548,2.339-1.084,4.667-1.632,7.018a2.213,2.213,0,0,1-.251-.08,17.078,17.078,0,0,0-3.355-.959,7.086,7.086,0,0,0-2.453-.057,2.566,2.566,0,0,0-.822.262.837.837,0,0,0,0,1.518,4.188,4.188,0,0,0,1.21.4,17.78,17.78,0,0,1,3.72,1.153,10.009,10.009,0,0,1,3.435,2.442,7.772,7.772,0,0,1,1.906,4.051,10.47,10.47,0,0,1-.342,4.861,7.485,7.485,0,0,1-4.4,4.724,11.025,11.025,0,0,1-3.127.833c-.662.08-1.324.126-1.986.183a.8.8,0,0,0-.16.034h-.822Z" transform="translate(-870.464 -249.526)" fill="#484848"/><path d="M468.622,313.181h-8.5c-.057-.194-.068-26.429-.011-26.749.08,0,.16-.011.228-.011,3.811,0,7.612-.023,11.423,0a9.39,9.39,0,0,1,5.615,1.78,8.482,8.482,0,0,1,2.111,11.366,5.945,5.945,0,0,1-2.134,2.088q3.03,4.433,6.048,8.844h.057V286.433h16.33v7.189h-7.566a19.029,19.029,0,0,0-.034,2.476h6.071V303.5h-6.071V306h8.593v7.189H475.172a.508.508,0,0,1-.5-.274q-2.79-4.416-5.592-8.821c-.1-.16-.205-.285-.445-.183v9.255Zm.011-15.93c.034.011.046.034.057.034a14.3,14.3,0,0,0,2.1-.046,1.846,1.846,0,0,0,1.586-2.374,1.9,1.9,0,0,0-1.814-1.392c-.582-.011-1.164,0-1.746,0-.057,0-.114.023-.183.023Z" transform="translate(-406.596 -253.284)" fill="#484848"/><path d="M1.1,6.9H10c.023.068.057.126.08.194C11.256,10.8,12.432,14.5,13.6,18.22a34.422,34.422,0,0,1,1.027,4.416c.023.1.046.217.068.354.034-.057.068-.08.08-.114a46.385,46.385,0,0,1,1.7-6.664c.97-3,1.906-6.025,2.864-9.038.023-.08.057-.171.091-.262H42.969v7.041l-.011.011a.04.04,0,0,1-.023.011H35.517a17.083,17.083,0,0,0-.011,2.431H41.5V23.7H35.483v2.453h7.486v7.03c-.194.057-15.565.08-16.079.023V9.753a.145.145,0,0,1-.068-.011c-.525,1.552-1.027,3.115-1.541,4.679s-1.038,3.15-1.563,4.724-1.027,3.127-1.541,4.7S21.139,27,20.625,28.571s-1.027,3.127-1.552,4.7H9.83Q5.465,20.092,1.1,6.9Z" transform="translate(0 -5.67)" fill="#484848"/><path d="M1023.8,33.161V22.354a1.062,1.062,0,0,0-.16-.559q-3.9-6.162-7.783-12.324a1.19,1.19,0,0,0-.194-.24c-.034.388-.023.776-.034,1.164v3.538c-.742.023-1.472,0-2.191.011h-4.382c-.023.023-.023.034-.034.034a.04.04,0,0,0-.011.023V33.126c-.194.057-8.25.08-8.81.023V13.909h-6.607a.447.447,0,0,0-.057-.046.04.04,0,0,1-.011-.023c0-.034-.023-.068-.023-.1V6.983a.314.314,0,0,1,.011-.1.886.886,0,0,1,.046-.08H1023.3a.437.437,0,0,1,.434.24c1.05,1.643,2.111,3.275,3.172,4.918a16.635,16.635,0,0,1,1.29,2.442c.034.08.068.16.125.285a2.051,2.051,0,0,0,.114-.217,16.592,16.592,0,0,1,1.3-2.431q1.609-2.482,3.218-4.987a.471.471,0,0,1,.456-.251h8.422c-.08.148-.125.251-.182.342q-2.448,3.869-4.918,7.737-2.123,3.338-4.245,6.664a.9.9,0,0,0-.148.514v11.1H1023.8Z" transform="translate(-879.152 -5.581)" fill="#484848"/><path d="M272.224,304.109v9.255c-.205.068-8.034.091-8.524.034V286.661h4.793c2.419,0,4.839-.011,7.258,0a9.588,9.588,0,0,1,5.215,1.461,8.079,8.079,0,0,1,3.743,5.489,8.766,8.766,0,0,1-.685,5.649,8.356,8.356,0,0,1-5.249,4.4,10.313,10.313,0,0,1-3.172.456h-3.366Zm.011-6.619c.068,0,.126.023.183.023h2.054a2.557,2.557,0,0,0,.65-.091,1.885,1.885,0,0,0,1-2.99,1.957,1.957,0,0,0-1.495-.73c-.742-.023-1.472,0-2.214,0a.923.923,0,0,0-.171.011V297.5Z" transform="translate(-232.633 -253.501)" fill="#484848"/><path d="M905.2,6.9h8.787V33.226c-.183.057-8.262.08-8.787.023Z" transform="translate(-800.928 -5.67)" fill="#484848"/></g></svg>